<?xml version="1.0" encoding="utf-8"?>
<!-- Generator: Adobe Illustrator 19.0.0, SVG Export Plug-In . SVG Version: 6.00 Build 0)  -->
<svg version="1.1" id="Camada_1" xmlns="http://www.w3.org/2000/svg" xmlns:xlink="http://www.w3.org/1999/xlink" x="0px" y="0px"
	 viewBox="0 0 670 732" style="enable-background:new 0 0 670 732;" xml:space="preserve">
<style type="text/css">
	.st0{fill:none;}
	.st1{fill:#B7B8B8;}
</style>
<path id="XMLID_674_" class="st0" d="M303.8,307.8l-4.7,3.2C300.7,310,302.2,308.9,303.8,307.8z"/>
<g id="XMLID_15_">
	<path id="XMLID_19_" class="st1" d="M626.6,572.3c-5.6-5.4-11.3-10.8-16.9-16.1l-60.4,42c-2.4,1.7-4.8,3.4-7.2,5l-1,0.7l0,0
		c-47.9,31.6-107.4,49.2-169.8,49.2c-1.4,0-2.7,0-4.1,0c-80.3-1-153.2-31.1-205.2-84.7C111.2,515.9,83.1,440.5,85,361.4
		c1.8-78,32.6-148.9,86.6-199.6c53.4-50.2,130-75.3,205.2-75.3c61.2,0,121.4,16.7,167.8,49.8l0-0.1l0.5,0.4c1.5,1.1,3.1,2.2,4.6,3.3
		l-0.4,0.4l50.6,44.1l45.7-44.8l-22.9-23.9C501-11.3,259.5-12.7,125.7,113C58.5,176.1,20.3,263.8,18,359.8
		c-2.3,96.9,32.7,189.8,95.9,255.1c64.5,66.5,154.1,103.8,252.4,105.1c1.6,0,3.3,0,4.9,0c98.1,0,191-36.2,255.6-99.6l24.6-24.1
		L626.6,572.3z"/>
	<path id="XMLID_16_" class="st1" d="M571.6,276.7l-161.7-93.4c-33.7-19.4-73.9-19.4-107.5,0c-2.2,1.3-4.3,2.6-6.4,4
		c-0.2-0.3-0.4-0.6-0.7-0.9c-65.2,35.3-109.5,104.3-109.5,183.4c0,85.7,52.1,159.5,126.2,191.5c0,0,0-0.1,0-0.1
		c14.1,6.4,29.1,9.7,44.1,9.7c18.5,0,36.9-4.9,53.8-14.6l161.7-93.4c33.7-19.4,53.8-54.2,53.8-93.1S605.3,296.1,571.6,276.7z
		 M541,409.8l-161.7,93.4c-9.5,5.5-20.1,7.3-30.4,5.6c-3.4-0.3-7-0.9-10.6-1.6c-3.7-0.7-7.5-1.1-11.2-1.9c0,0,0,0,0,0
		c-49.7-24.8-84-76.1-84-135.4c0-56.8,31.5-106.4,78-132.2c-0.2-0.4-0.4-0.8-0.5-1.2c10.3-5.9,23.8-6.9,36-6.9
		c2.4,0,4.6,0.5,6.7,1.2c5.5,0.9,10.9,2.7,16,5.6L541,329.8c14.5,8.3,23.1,23.3,23.1,40C564,386.5,555.4,401.4,541,409.8z"/>
</g>
</svg>
