<?xml version="1.0" encoding="utf-8"?>
<!-- Generator: Adobe Illustrator 19.0.0, SVG Export Plug-In . SVG Version: 6.00 Build 0)  -->
<svg version="1.1" id="Camada_1" xmlns="http://www.w3.org/2000/svg" xmlns:xlink="http://www.w3.org/1999/xlink" x="0px" y="0px"
	 viewBox="0 0 1812 410" style="enable-background:new 0 0 1812 410;" xml:space="preserve">
<style type="text/css">
	.st0{fill:#B7B8B8;}
</style>
<g id="XMLID_20_">
	<path id="XMLID_649_" class="st0" d="M1197.8,131.4c-8.6,8.5-17,16.7-25.8,25.3c-1.1-0.9-2.6-2-4.1-3.2
		c-23.2-18.3-48.9-23.2-76.6-12.5c-26.5,10.2-41.3,30.7-45.1,58.2c-4.3,31.4,8.4,59.7,33.8,75.3c27.6,17,67,12.9,88.1-7.1
		c3.1-2.9,5-3,8.1,0.1c7.2,7.4,14.8,14.5,22.3,21.6c-36,37.5-112.9,46.1-159.7,0.2c-41.3-40.5-44.6-116.5,2.3-159.7
		C1086.7,87.7,1160.7,93,1197.8,131.4z"/>
	<path id="XMLID_657_" class="st0" d="M1388.8,316.3c-12.3,0-23.9,0-36.2,0c0-10.3,0-20.4,0-31.6c-4.8,5.1-8.5,9.6-12.8,13.4
		c-21.9,19.6-47.5,26.9-76.2,20.3c-25.3-5.8-42.5-25.3-44.8-49.1c-2.6-26.6,9.5-48.6,35.4-59.6c21.2-9,43.3-15.8,65-23.5
		c8.5-3,17-5.8,26.1-8.9c-4.6-11.5-12.5-24.2-22.5-30.7c-12-7.7-25.3-11.1-39.6-11.1c-11.7,0-23.5-0.2-35.2,0.1
		c-4.4,0.1-6.4-1-6.1-5.8c0.4-8.2-0.1-16.5,0.3-24.7c0.1-1.6,2.3-4.5,3.4-4.5c21.9,0.3,43.8-1.9,65.5,3.2
		c42,9.8,71.1,45.8,76.2,88.6c1.1,9.3,1.3,18.7,1.4,28.1C1388.9,252.1,1388.8,283.8,1388.8,316.3z M1352.1,207.7
		c-1.6,0.4-3.1,0.6-4.6,1.1c-22.3,7.8-44.7,15.6-66.9,23.5c-4.2,1.5-8.3,3.6-12,6c-9.4,6-13.9,14.9-12.3,26
		c1.6,10.8,8,18.4,18.3,21.6c21.3,6.5,40,0.4,55.6-14.3C1348.5,254.5,1354.2,232.5,1352.1,207.7z"/>
	<path id="XMLID_655_" class="st0" d="M632.7,289.3c-40.8,40.1-117.5,43.9-161.7-1.7c-39.5-40.8-41.9-114.9,3.7-157.8
		c41.8-39.2,118.2-39.2,156.3,0.5c-8.6,8.4-17.1,16.8-26,25.5c-3-2.2-7.1-5.5-11.5-8.3c-46-29.4-106-2.4-113.2,51.6
		c-5.9,44.3,20.9,79.6,61.6,85.3c22.2,3.1,42.9-1.4,60.1-16.9c3.6-3.2,5.5-2.7,8.5,0.4C617.6,275.1,625.1,282,632.7,289.3z"/>
	<path id="XMLID_654_" class="st0" d="M990.3,288.8c-35.7,37.5-112.6,46.7-159.7,0.9c-41.6-40.4-45.1-116.8,2-160.1
		C878,88,951.9,92.8,989.1,131.2c-8.5,8.2-17.1,16.4-26.2,25.2c-18.9-17.3-42.1-24.6-68.4-19.1c-17.3,3.6-31.9,12.5-42.7,27
		c-21.8,29.3-19,73.2,5.4,99c24.5,25.9,75.1,31.7,106.7,0.9c4.3,4.1,8.5,8.4,12.9,12.4C981.3,280.8,985.9,284.8,990.3,288.8z"/>
	<path id="XMLID_641_" class="st0" d="M694.4,316.4c-13,0-25.7,0-38.9,0c0-102.6,0-205.2,0-308.3c12.7,0,25.6,0,38.9,0
		C694.4,110.5,694.4,213.1,694.4,316.4z"/>
	<path id="XMLID_622_" class="st0" d="M765.5,316.2c-13.3,0-25.9,0-38.8,0c0-70.5,0-140.6,0-211.1c13,0,25.8,0,38.8,0
		C765.5,175.5,765.5,245.7,765.5,316.2z"/>
	<path id="XMLID_614_" class="st0" d="M771.6,42.2c-0.2,14.4-11.8,25.6-26.1,25.3c-14.5-0.3-26-12.1-25.7-26.6
		c0.3-14.6,11.7-25.6,26.7-25.4C761.2,15.7,771.8,27,771.6,42.2z"/>
	<path id="XMLID_251_" class="st0" d="M1586.5,136.9c14.3-8.8,27.7-18,41.9-25.5c26.2-13.9,66.4-9,85.5,17.5
		c7.9,11,12.5,23.1,12.6,36.6c0.4,33.3,0.3,66.6,0.3,99.9c0,18,0,36,0,55c-7.7,0-15,0.1-22.4,0c-5.4-0.1-13.2,1.7-15.7-1.1
		c-2.9-3.3-1.6-10.6-1.6-16.2c-0.1-41.9-0.1-83.8,0-125.7c0-11-2.4-21.1-11-28.6c-11.7-10.1-30.4-10.8-44.2-1.4
		c-11.3,7.7-22.2,16-33.3,23.9c-3.4,2.4-4.5,5.4-4.5,9.4c0.1,44.1,0.1,88.1,0.1,132.2c0,2.3,0,4.6,0,7.2c-13.4,0-26.2,0-39.7,0
		c0-2.4,0-4.5,0-6.6c0-44.6,0.1-89.3-0.1-133.9c0-6.3-0.7-13.1-2.9-18.9c-6.9-17.9-27.7-26-45.5-16.4c-15,8.2-28.5,19.1-42.4,29.2
		c-1.6,1.2-1.9,4.9-1.9,7.4c-0.1,43.7-0.1,87.3-0.1,131c0,8.6,0,8.6-8.5,8.6c-10.2,0-20.3,0-31.1,0c-0.2-2.5-0.5-4.6-0.5-6.7
		c0-66.2,0-132.4-0.1-198.5c0-5.4,1.6-7.2,7-7c10.3,0.4,20.7,0.1,32,0.1c0,8.1,0,15.8,0,24.8c8-5.3,14.7-9.9,21.5-14.2
		c18.2-11.6,37.7-17.9,59.6-13.6c17.9,3.5,32.3,12.3,42.3,27.8C1584.8,134.6,1586,136.1,1586.5,136.9z"/>
	<path id="XMLID_250_" class="st0" d="M1759.2,108.9c13,0,25.8,0,38.9,0c0,70.4,0,140.4,0,210.9c-12.8,0-25.6,0-38.9,0
		C1759.2,249.8,1759.2,179.6,1759.2,108.9z"/>
	<path id="XMLID_240_" class="st0" d="M1804.1,45.4c0,14.3-11.4,25.9-25.6,25.9c-14.6,0-26.1-11.3-26.2-26c-0.1-14.6,11.2-26,26-26
		C1793,19.2,1804,30.4,1804.1,45.4z"/>
</g>
<path id="XMLID_674_" class="st0" d="M303.8,307.8l-4.7,3.2C300.7,310,302.2,308.9,303.8,307.8z"/>
<g id="XMLID_15_">
	<path id="XMLID_19_" class="st0" d="M349.8,321c-3.1-3-6.1-5.9-9.2-8.8l-32.9,22.9c-1.3,0.9-2.6,1.8-3.9,2.7l-0.6,0.4l0,0
		c-26.1,17.3-58.6,26.8-92.6,26.8c-0.7,0-1.5,0-2.2,0c-43.8-0.5-83.5-16.9-111.9-46.2c-27.7-28.6-43-69.7-42-112.8
		c1-42.5,17.8-81.2,47.2-108.8c29.1-27.4,70.9-41.1,111.9-41.1c33.4,0,66.2,9.1,91.5,27.2l0,0l0.3,0.2c0.8,0.6,1.7,1.2,2.5,1.8
		l-0.2,0.2l27.6,24l24.9-24.4l-12.5-13c-66.3-69.3-198-70-271-1.5C40.1,104.9,19.2,152.7,18,205.1c-1.2,52.8,17.8,103.5,52.3,139.1
		c35.2,36.3,84,56.6,137.6,57.3c0.9,0,1.8,0,2.7,0c53.5,0,104.1-19.7,139.4-54.3l13.4-13.2L349.8,321z"/>
	<path id="XMLID_16_" class="st0" d="M319.8,159.8l-88.2-50.9c-18.4-10.6-40.3-10.6-58.6,0c-1.2,0.7-2.3,1.4-3.5,2.2
		c-0.1-0.2-0.2-0.3-0.4-0.5c-35.5,19.2-59.7,56.8-59.7,100c0,46.7,28.4,87,68.8,104.4c0,0,0,0,0-0.1c7.7,3.5,15.9,5.3,24.1,5.3
		c10.1,0,20.1-2.7,29.3-7.9l88.2-50.9c18.4-10.6,29.3-29.6,29.3-50.8S338.2,170.4,319.8,159.8z M303.1,232.3l-88.2,50.9
		c-5.2,3-11,4-16.6,3c-1.9-0.2-3.8-0.5-5.8-0.9c-2-0.4-4.1-0.6-6.1-1.1c0,0,0,0,0,0c-27.1-13.5-45.8-41.5-45.8-73.8
		c0-31,17.2-58,42.5-72.1c-0.1-0.2-0.2-0.4-0.3-0.6c5.6-3.2,13-3.8,19.6-3.8c1.3,0,2.5,0.3,3.7,0.7c3,0.5,6,1.5,8.7,3.1l88.2,50.9
		c7.9,4.5,12.6,12.7,12.6,21.8C315.7,219.6,311,227.8,303.1,232.3z"/>
</g>
</svg>
